<?xml version="1.0" encoding="utf-8"?>
<!-- Generator: Adobe Illustrator 18.1.1, SVG Export Plug-In . SVG Version: 6.00 Build 0)  -->
<svg version="1.1" id="Layer_1" xmlns="http://www.w3.org/2000/svg" xmlns:xlink="http://www.w3.org/1999/xlink" x="0px" y="0px"
	 viewBox="0 0 32 32" enable-background="new 0 0 32 32" xml:space="preserve">
<g>
	<path d="M1408.5,206h49.6l14.1,49.9c3.7,13.2,7,28.2,9.5,43.5c2.8-16.2,4.3-22.1,11-43.5l15.6-49.9h48.4l14.4,49.9
		c1.5,5.2,8.9,33.7,10.4,43.5c1.8-11,9.2-38,10.7-43.5L1607,206h49.9l-53.6,153.2h-43.8l-14.7-48.7c-7.7-25.1-11.6-43.2-12.6-49.6
		c-1.2,6.4-4,18.4-13.8,50.6l-14.7,47.8h-46L1408.5,206z"/>
</g>
<path fill="#D0AF7B" d="M1564.7-178.8l3.3,11.2C1567.5-171.6,1566.4-175.4,1564.7-178.8z M1557.2-204.7L1557.2-204.7
	c0.3,0,0.5,0,0.8,0C1557.7-204.7,1557.4-204.7,1557.2-204.7C1557.2-204.7,1557.1-204.7,1557.2-204.7z M1800.7-204.7
	c0.1,0,0.3,0,0.4,0l0,0C1800.9-204.7,1800.8-204.7,1800.7-204.7z"/>
<g>
	<g>
		<path fill="#1A134B" d="M891.7,184.5v126.7c0,44.5-31.9,80.6-71.3,80.6h0v-504.9h0c39.4,0,71.3,36.1,71.3,80.6V90.4 M891.7,184.5
			 M1017.6,184.5 M1017.6,90.4V-32.5c0-44.5,31.9-80.6,71.3-80.6h0v504.9h0c-39.4,0-71.3-36.1-71.3-80.6V184.5 M1017.6,90.4
			 M891.7,90.4"/>
	</g>
	<path fill="#D0AF7B" d="M1151.6,32.9c-18.8,3.2-34,16.7-39.8,34.4c-0.3,1-0.6,2.1-0.9,3.1v0l-14.1,48.4l-43.4,149
		c-3.6,12.4-15,21-28,21h0c-13,0-24.4-8.6-28-21.1l-48.2-167.3l-47.9,167.3c-3.6,12.5-15,21.1-28,21.1c-12.9,0-24.3-8.5-27.9-21
		l-43.4-148.6L789.6,77v0c-0.7-5.7-2.3-11.1-4.7-16c0,0,0,0,0,0c-7-14.5-20.8-25.2-37.2-28.1c7.6-5.3,16.6-8.5,26.4-9
		c0.4,0,0.7,0,1.1,0c9.9,0.2,19.3,2.7,27.6,7.1c0,0,0.1,0,0.1,0c2.9,1.5,5.6,3.3,8.2,5.3c10.4,7.9,18.2,19.1,21.9,32.4l33,119.4
		c2.1,7.6,12.8,7.6,14.9,0l39-141.7c3.6-13.2,15.6-22.3,29.2-22.4h0.2c13.7,0,25.8,9.2,29.5,22.4l39.1,141.7
		c2.1,7.6,12.8,7.6,14.9,0l32.8-119.4c5.2-19.1,19.2-33.9,36.8-40.7c0,0,0.1,0,0.1,0c6.7-2.6,13.9-4,21.4-4.1c0,0,0,0,0,0
		c0.2,0,0.4,0,0.6,0C1134.5,24.2,1143.9,27.5,1151.6,32.9z"/>
</g>
<g>
	<g>
		<path fill="#1A134B" d="M12.3,18.8v8c0,2.8-2,5.1-4.5,5.1h0V0.1h0c2.5,0,4.5,2.3,4.5,5.1v7.7 M12.3,18.8 M20.3,18.8 M20.3,12.9
			V5.2c0-2.8,2-5.1,4.5-5.1h0v31.8h0c-2.5,0-4.5-2.3-4.5-5.1v-8 M20.3,12.9 M12.3,12.9"/>
	</g>
	<path fill="#D0AF7B" d="M28.7,9.3c-1.2,0.2-2.1,1.1-2.5,2.2c0,0.1,0,0.1-0.1,0.2v0l-0.9,3.1l-2.7,9.4c-0.2,0.8-0.9,1.3-1.8,1.3h0
		c-0.8,0-1.5-0.5-1.8-1.3l-3-10.5l-3,10.5c-0.2,0.8-0.9,1.3-1.8,1.3c-0.8,0-1.5-0.5-1.8-1.3l-2.7-9.4l-0.8-2.7v0
		c0-0.4-0.1-0.7-0.3-1c0,0,0,0,0,0c-0.4-0.9-1.3-1.6-2.3-1.8c0.5-0.3,1-0.5,1.7-0.6c0,0,0,0,0.1,0c0.6,0,1.2,0.2,1.7,0.4
		c0,0,0,0,0,0c0.2,0.1,0.4,0.2,0.5,0.3c0.7,0.5,1.1,1.2,1.4,2l2.1,7.5c0.1,0.5,0.8,0.5,0.9,0l2.5-8.9c0.2-0.8,1-1.4,1.8-1.4h0
		c0.9,0,1.6,0.6,1.9,1.4l2.5,8.9c0.1,0.5,0.8,0.5,0.9,0l2.1-7.5c0.3-1.2,1.2-2.1,2.3-2.6c0,0,0,0,0,0c0.4-0.2,0.9-0.3,1.3-0.3
		c0,0,0,0,0,0c0,0,0,0,0,0C27.7,8.7,28.2,9,28.7,9.3z"/>
</g>
<text transform="matrix(1 0 0 1 1437.3717 80.6168)" fill="#D0AF7B" font-family="'FranklinGothic-Medium'" font-size="195.453">W</text>
<path fill="#D0AF7B" d="M1901.4,40c-1.5-3.2-3.6-5.8-6.2-7.8c-2.5-1.9-5.5-3.4-8.7-4.3c-3.1-0.9-6.4-1.3-9.8-1.3
	c-1.2,0-2.4,0.1-3.7,0.2c-1.2,0.1-2.3,0.3-3.5,0.4l-2.8,0.4l-1.5,7.1l2.5,1.5c1.5,0.9,2.8,2,3.9,3.6c1.2,1.7,2.3,3.6,3,5.6
	c0.8,2.1,1.5,4.5,1.9,6.9c0.4,2.5,0.6,5,0.6,7.4c0,4.3-0.6,9.6-1.8,15.7c-1.2,6.2-3,13.2-5.2,20.6c-2.2,7.5-4.9,15.5-7.9,23.9
	c-3,8.4-6.4,17.1-9.9,25.8c-3.5,8.7-7.3,17.5-11.2,26.3c-2.2,5-4.5,10-6.7,14.8c-1-5.4-2.1-10.9-3.2-16.6
	c-1.9-9.9-3.9-19.9-5.9-29.7c-2-9.6-4.1-19.5-6.2-29.5c-2.1-9.9-4.2-19.2-6.1-27.7c-1.9-8.7-3.8-16.9-5.7-24.4
	c-1.8-7.5-3.4-14.1-4.8-19.5l0,0c-0.3-1.3-1.3-2.4-2.6-2.8l0,0c-1.4-0.5-2.9-0.7-4.5-0.7c-1.7,0-3.4,0.3-4.9,1
	c-2.2,0.9-3.7,2.6-4.3,4.7c-2.4,8.4-5,17.1-7.6,25.8c-2.7,8.8-5.5,17.8-8.4,26.9c-2.9,9.1-5.9,18.3-8.8,27.2c-3,9-6,18-9,26.8
	c-3,8.7-5.9,17.3-8.9,25.6c-1.3,3.7-2.6,7.3-3.8,10.8c-2.5-13.2-4.9-25.5-7.3-36.7c-3.1-14.9-6-28.5-8.7-40.3
	c-2.7-11.8-5.1-22.2-7.3-30.9c-2.2-8.7-4.1-15.9-5.7-21.6c-1.1-4.1-2.2-7.6-3.2-10.4c-1.1-3.1-2.5-5.8-4-7.9c-1.7-2.3-3.9-4-6.4-5.1
	c-2.4-1-5.2-1.5-8.7-1.5c-3.9,0-8.7,0.6-14.7,1.8c-5.6,1.1-12.7,2.7-21.2,4.8l-3.5,0.8l1.8,15l4.1-0.7c2.5-0.4,4.9-0.8,7-1
	c2-0.2,3.8-0.3,5.5-0.3c2.4,0,4.4,0.2,6,0.7c1.4,0.4,2.7,1.1,3.7,2c1.1,1,2.1,2.3,3,3.9c1,1.8,1.9,4.2,2.8,6.9
	c3.6,10.6,8.5,29.6,14.7,56.5c6.1,27,13.6,62.6,22.2,106l0,0c0.3,1.7,1.7,2.9,3.4,3.2l1.7,0.2c0.3,0,0.6,0.1,0.9,0l14.1-1.1
	c1.5-0.1,2.9-1.1,3.4-2.6l0,0c3.6-9.7,7-18.8,10.2-27.4c3.2-8.5,6.2-16.7,9.1-24.6c2.8-7.8,5.6-15.4,8.1-22.7
	c2.6-7.3,5.1-14.6,7.4-21.8c2.3-7.1,4.7-14.5,6.9-21.8c0.9-3,1.8-6.1,2.7-9.2c0.6,2.6,1.2,5.3,1.7,8c1.6,7.7,3.4,16.1,5.4,25.1
	c1.4,6.5,2.9,13.2,4.4,20.1c1.5,6.8,3,14.2,4.6,21.9c1.5,7.6,3.1,15.8,4.6,24.5c1.5,8.6,3.1,18,4.7,28l0,0c0.3,1.7,1.6,3.1,3.4,3.3
	l1.7,0.2c0.3,0,0.6,0.1,0.9,0l13.9-1.1c1.4-0.1,2.7-1,3.3-2.2l0,0c4.3-8.8,8.6-17.9,12.7-26.8c4.1-8.9,8.2-18,12.2-27
	c3.9-8.9,7.8-17.8,11.4-26.4c3.6-8.6,7-17,10.2-25c3.1-8,6-15.6,8.6-22.7c2.6-7.1,4.8-13.8,6.6-19.8c1.9-6,3.3-11.5,4.3-16.1
	c1.1-4.9,1.6-8.8,1.6-11.8C1903.7,46.9,1902.9,43.2,1901.4,40z"/>
<path fill="#1A134B" d="M1723.4,101.7"/>
<path fill="#1A134B" d="M1763.1,16.3"/>
<path fill="none" stroke="#52BA67" stroke-miterlimit="10" d="M1800.6-204.7c-5.2,0.1-10.2,1-14.9,2.8c4.3-1.8,9-2.9,14-2.9
	C1800-204.7,1800.3-204.7,1800.6-204.7z"/>
<path fill="none" stroke="#52BA67" stroke-miterlimit="10" d="M1835.2-169.2c0,17.6-12.7,32.1-29.5,35c-2,0.3-4,0.5-6,0.5
	c-6.5,0-12.7-1.8-18-4.9l9.8-33.7v0l0.6-2.2c4-12.3,14.7-21.7,27.7-24C1829.2-192,1835.2-181.3,1835.2-169.2z"/>
<path fill="none" stroke="#52BA67" stroke-miterlimit="10" d="M1861.5-163.4c0,19.6-15.9,35.5-35.5,35.5c-7.5,0-14.5-2.3-20.2-6.3
	c-9.2-6.4-15.3-17.1-15.3-29.2c0-3.1,0.4-6,1.1-8.9v0l0.6-2.2c4-12.3,14.7-21.7,27.7-24c2-0.3,4-0.5,6-0.5
	C1845.6-198.9,1861.5-183,1861.5-163.4z"/>
<path fill="none" stroke="#52BA67" stroke-miterlimit="10" d="M1568-167.7l8.6,29.3c-5.2,3-11.2,4.6-17.6,4.6
	c-2.1,0-4.1-0.2-6.1-0.5c-16.7-2.9-29.4-17.4-29.4-35c0-12.1,6-22.8,15.3-29.2c11.4,2,21,9.4,25.9,19.5c0,0,0,0,0,0
	C1566.4-175.4,1567.5-171.6,1568-167.7L1568-167.7z"/>
<path fill="none" stroke="#52BA67" stroke-miterlimit="10" d="M1577.1-199.7c-5.8-3.1-12.3-4.9-19.2-5c0.4,0,0.7,0,1.1,0
	C1565.6-204.7,1571.8-202.9,1577.1-199.7z"/>
<path fill="none" stroke="#52BA67" stroke-miterlimit="10" d="M1568.2-163.4c0,12.1-6.1,22.8-15.3,29.2c-5.7,4-12.7,6.3-20.2,6.3
	c-19.6,0-35.5-15.9-35.5-35.5c0-19.6,15.9-35.5,35.5-35.5c2.1,0,4.1,0.2,6,0.5c11.4,2,21,9.4,25.9,19.5c0,0,0,0,0,0
	c1.7,3.5,2.8,7.2,3.3,11.2v0C1568.1-166.3,1568.2-164.8,1568.2-163.4z"/>
<g>
	<path fill="#D0AF7B" d="M2160.7,114.7c-9,0-16.9-5.9-19.5-14.6l-49.6-169.8c0,0,0,0,0,0l0,0c19.1,0,35.9,12.8,41,31.2l22.9,83.1
		c1.5,5.3,8.9,5.3,10.4,0l27.2-98.6c2.5-9.2,10.8-15.5,20.3-15.6l0,0c9.6-0.1,18.1,6.3,20.7,15.6l27.2,98.6c1.5,5.3,8.9,5.3,10.4,0
		l22.8-83.1c5.1-18.5,21.9-31.2,41-31.2l0,0l-49.5,169.8c-2.5,8.6-10.5,14.6-19.5,14.6h0c-9,0-17-6-19.5-14.7l-33.6-116.5
		L2180.2,100C2177.7,108.7,2169.8,114.7,2160.7,114.7L2160.7,114.7z"/>
</g>
<circle fill="none" stroke="#52BA67" stroke-miterlimit="10" cx="2332.9" cy="-34.2" r="35.5"/>
<circle fill="none" stroke="#52BA67" stroke-miterlimit="10" cx="2360.7" cy="-28.4" r="35.5"/>
</svg>
