<svg width="20" height="20" viewBox="0 0 20 20" fill="none" xmlns="http://www.w3.org/2000/svg">
<path d="M14 9.7735C14.2833 9.7735 14.5208 9.67767 14.7125 9.486C14.9042 9.29433 15 9.05683 15 8.7735C15 8.49017 14.9042 8.25267 14.7125 8.061C14.5208 7.86933 14.2833 7.7735 14 7.7735C13.7167 7.7735 13.4792 7.86933 13.2875 8.061C13.0958 8.25267 13 8.49017 13 8.7735C13 9.05683 13.0958 9.29433 13.2875 9.486C13.4792 9.67767 13.7167 9.7735 14 9.7735ZM6 7.7735H11V5.7735H6V7.7735ZM2.5 19.7735C1.93333 17.8735 1.375 15.9777 0.825 14.086C0.275 12.1943 0 10.2568 0 8.2735C0 6.74017 0.533333 5.44017 1.6 4.3735C2.66667 3.30683 3.96667 2.7735 5.5 2.7735H10.5C10.9833 2.14017 11.5708 1.6485 12.2625 1.2985C12.9542 0.948499 13.7 0.773499 14.5 0.773499C14.9167 0.773499 15.2708 0.919332 15.5625 1.211C15.8542 1.50267 16 1.85683 16 2.2735C16 2.3735 15.9875 2.4735 15.9625 2.5735C15.9375 2.6735 15.9083 2.76517 15.875 2.8485C15.8083 3.03183 15.7458 3.21933 15.6875 3.411C15.6292 3.60267 15.5833 3.7985 15.55 3.9985L17.825 6.2735H20V13.2485L17.175 14.1735L15.5 19.7735H10V17.7735H8V19.7735H2.5ZM4 17.7735H6V15.7735H12V17.7735H14L15.55 12.6235L18 11.7985V8.2735H17L13.5 4.7735C13.5 4.44017 13.5208 4.11933 13.5625 3.811C13.6042 3.50267 13.6667 3.19017 13.75 2.8735C13.2667 3.00683 12.8417 3.236 12.475 3.561C12.1083 3.886 11.8417 4.29017 11.675 4.7735H5.5C4.53333 4.7735 3.70833 5.11517 3.025 5.7985C2.34167 6.48183 2 7.30683 2 8.2735C2 9.90683 2.225 11.5027 2.675 13.061C3.125 14.6193 3.56667 16.1902 4 17.7735Z" fill="#FAFAFA"/>
</svg>
