<svg width="24" height="24" viewBox="0 0 24 24" fill="none" xmlns="http://www.w3.org/2000/svg">
<path fill-rule="evenodd" clip-rule="evenodd" d="M20.6721 19.5H14.4258C14.4258 20.163 14.1626 20.7989 13.6941 21.2678C13.2255 21.7366 12.59 22 11.9274 22C11.2647 22 10.6292 21.7366 10.1607 21.2678C9.69211 20.7989 9.42887 20.163 9.42887 19.5H3.18266C2.92646 19.4933 2.67911 19.4048 2.47681 19.2474C2.2745 19.0899 2.12786 18.8718 2.05834 18.625C1.98461 18.3838 1.98068 18.1266 2.04701 17.8833C2.11334 17.6399 2.24721 17.4204 2.43312 17.25C3.05186 16.7825 3.55423 16.1782 3.90096 15.4844C4.24769 14.7905 4.4294 14.0258 4.4319 13.25V9.5C4.4319 7.51088 5.2216 5.60322 6.62727 4.1967C8.03294 2.79018 9.93944 2 11.9274 2C13.9153 2 15.8218 2.79018 17.2274 4.1967C18.6331 5.60322 19.4228 7.51088 19.4228 9.5V13.25C19.4253 14.0258 19.607 14.7905 19.9538 15.4844C20.3005 16.1782 20.8029 16.7825 21.4216 17.25C21.6248 17.4074 21.7714 17.6267 21.839 17.8747C21.9066 18.1228 21.8916 18.3862 21.7964 18.625C21.7269 18.8718 21.5802 19.0899 21.3779 19.2474C21.1756 19.4048 20.9283 19.4933 20.6721 19.5Z" fill="#FAFAFA"/>
<rect x="13.25" y="0.75" width="7.5" height="7.5" rx="3.75" fill="#B3261E"/>
</svg>
