<svg width="868" height="561" viewBox="0 0 868 561" fill="none" xmlns="http://www.w3.org/2000/svg">
<path d="M348.851 511.632C341.986 511.632 335.46 510.254 330.572 507.42L91.1988 369.22C86.3885 366.438 83.7623 362.59 83.7623 358.352C83.7623 353.281 87.5586 348.159 94.1891 344.337L550.729 80.7821C563.158 73.6316 582.009 72.8516 592.774 79.066L832.147 217.266C836.957 220.048 839.583 223.896 839.583 228.134C839.583 233.205 835.787 238.327 829.157 242.149L372.617 505.73C365.83 509.656 357.12 511.658 348.851 511.658V511.632ZM331.092 506.536C341.57 512.594 359.98 511.814 372.097 504.82L828.637 241.239C834.929 237.599 838.543 232.815 838.543 228.134C838.543 224.286 836.073 220.75 831.601 218.176L592.228 79.9761C581.749 73.9177 563.34 74.6977 551.223 81.6922L94.6831 345.247C88.3906 348.887 84.7764 353.671 84.7764 358.352C84.7764 362.2 87.2466 365.736 91.6929 368.31L331.066 506.51L331.092 506.536Z" fill="#76AAFF"/>
<path d="M839.064 164.274L804.689 170.202L592.514 47.7078C581.879 41.5713 563.288 42.3254 550.989 49.4239L145.049 283.778L84.2564 294.257V315.813C84.2304 319.739 86.5706 323.509 91.4069 326.291L330.78 464.491C341.415 470.628 360.006 469.873 372.305 462.775L828.845 199.194C835.449 195.372 838.882 190.51 838.986 185.855H839.011V164.3L839.064 164.274Z" fill="url(#paint0_linear_190_47)"/>
<path d="M330.831 442.78L91.4585 304.58C80.8238 298.443 82.1499 287.705 94.4487 280.606L550.989 17.0257C563.288 9.92715 581.879 9.1471 592.514 15.3095L831.887 153.509C842.521 159.646 841.195 170.384 828.896 177.483L372.356 441.063C360.057 448.162 341.466 448.942 330.831 442.78Z" fill="#24126A"/>
<path d="M828.897 177.483L372.357 441.063C360.058 448.162 341.466 448.942 330.832 442.78L91.4589 304.58C87.1946 302.11 84.8805 298.911 84.4124 295.505C83.7624 299.926 86.0505 304.242 91.4589 307.388L330.832 445.588C341.466 451.724 360.058 450.97 372.357 443.872L828.897 180.291C836.255 176.053 839.661 170.488 838.933 165.392C838.309 169.656 834.929 173.999 828.897 177.483Z" fill="white"/>
<path opacity="0.51" d="M331.3 437.423L100.456 304.112C90.1588 298.157 91.4589 287.783 103.342 280.918L551.405 22.278C563.288 15.4135 581.281 14.6595 591.578 20.6139L822.422 153.925C832.719 159.88 831.419 170.254 819.536 177.119L371.473 435.733C359.59 442.598 341.596 443.352 331.3 437.397V437.423Z" fill="#453C9E"/>
<path style="mix-blend-mode:lighten" opacity="0.8" d="M348.747 436.227C342.064 436.227 335.694 434.875 330.936 432.145L100.091 298.807C95.3591 296.077 92.7589 292.281 92.7589 288.095C92.7589 283.102 96.4772 278.084 102.978 274.34L551.041 15.6995C563.106 8.73105 581.489 7.977 591.968 14.0354L822.812 147.347C827.545 150.077 830.145 153.873 830.145 158.06C830.145 163.052 826.427 168.07 819.926 171.84L371.863 430.455C365.258 434.251 356.781 436.201 348.747 436.201V436.227ZM331.664 430.845C341.726 436.669 359.434 435.915 371.108 429.181L819.172 170.566C825.178 167.082 828.637 162.558 828.637 158.086C828.637 154.445 826.297 151.117 822.058 148.647L591.24 15.3095C581.151 9.48511 563.47 10.2392 551.795 16.9736L103.706 275.614C97.6993 279.072 94.241 283.622 94.241 288.095C94.241 291.735 96.5812 295.089 100.819 297.533L331.664 430.845Z" fill="url(#paint1_linear_190_47)"/>
<g opacity="0.3">
<path style="mix-blend-mode:lighten" opacity="0.5" d="M331.3 431.495L100.456 298.157C90.1588 292.203 91.4589 281.828 103.342 274.964L551.405 16.3496C563.288 9.48514 581.281 8.73109 591.578 14.6855L822.422 147.997C832.719 153.951 831.419 164.326 819.536 171.19L371.473 429.805C359.59 436.669 341.596 437.423 331.3 431.469V431.495Z" fill="url(#paint2_radial_190_47)"/>
<mask id="mask0_190_47" style="mask-type:luminance" maskUnits="userSpaceOnUse" x="93" y="10" width="737" height="426">
<path d="M331.3 431.495L100.456 298.157C90.1588 292.203 91.4589 281.828 103.342 274.964L551.405 16.3496C563.288 9.48514 581.281 8.73109 591.578 14.6855L822.422 147.997C832.719 153.951 831.419 164.326 819.536 171.19L371.473 429.805C359.59 436.669 341.596 437.423 331.3 431.469V431.495Z" fill="white"/>
</mask>
<g mask="url(#mask0_190_47)">
<path d="M668.908 301.486L665.579 301.044C665.215 300.784 664.851 300.524 664.435 300.29L407.563 151.975C400.933 148.153 389.336 148.621 381.665 153.041L231.817 239.549C229.815 240.693 228.307 242.02 227.241 243.372L225.472 242.852V248.026C225.472 250.444 226.955 252.758 229.945 254.474L486.817 402.789C493.447 406.611 505.044 406.143 512.715 401.723L662.563 315.215C666.853 312.744 668.986 309.572 668.908 306.556V301.434V301.486Z" fill="#9FFFF8"/>
<path d="M486.817 397.64L229.945 249.326C223.314 245.504 224.146 238.795 231.791 234.375L381.639 147.867C389.31 143.447 400.907 142.953 407.537 146.801L664.409 295.115C671.04 298.938 670.208 305.646 662.563 310.066L512.715 396.574C505.044 400.995 493.447 401.489 486.817 397.64Z" fill="#76AAFF"/>
<path d="M317.441 262.561L285.719 244.256C282.78 242.54 283.144 239.575 286.551 237.599C289.957 235.623 295.105 235.415 298.069 237.131L329.792 255.436C332.73 257.153 332.366 260.117 328.96 262.093C325.553 264.069 320.405 264.277 317.441 262.561Z" fill="white"/>
<path d="M375.971 296.337L344.249 278.032C341.311 276.316 341.675 273.352 345.081 271.376C348.487 269.399 353.635 269.191 356.6 270.907L388.322 289.213C391.26 290.929 390.896 293.893 387.49 295.869C384.084 297.845 378.935 298.053 375.971 296.337Z" fill="white"/>
<path d="M434.475 330.14L402.753 311.834C399.814 310.118 400.178 307.154 403.585 305.178C406.991 303.202 412.139 302.994 415.104 304.71L446.826 323.015C449.764 324.731 449.4 327.695 445.994 329.672C442.587 331.648 437.439 331.856 434.475 330.14Z" fill="white"/>
<path d="M493.005 363.916L461.283 345.611C458.345 343.895 458.709 340.93 462.115 338.954C465.521 336.978 470.67 336.77 473.634 338.486L505.356 356.792C508.294 358.508 507.93 361.472 504.524 363.448C501.118 365.424 495.969 365.632 493.005 363.916Z" fill="white"/>
</g>
</g>
<path opacity="0.4" d="M773.149 170.124C769.613 172.153 763.918 172.153 760.382 170.124C756.846 168.096 756.846 164.794 760.382 162.766C763.918 160.738 769.613 160.738 773.149 162.766C776.685 164.794 776.685 168.096 773.149 170.124Z" fill="#24126A"/>
<path opacity="0.4" d="M724.448 134.632L749.435 149.063C752.478 150.831 752.113 153.899 748.577 155.927C745.041 157.956 739.737 158.19 736.668 156.421L711.681 141.99C708.638 140.222 709.002 137.154 712.539 135.126C716.075 133.098 721.379 132.864 724.448 134.632Z" fill="#24126A"/>
<path opacity="0.4" d="M584.064 51.8681L609.051 66.2991C612.094 68.0672 611.73 71.1354 608.193 73.1636C604.657 75.1917 599.327 75.4257 596.285 73.6576L571.297 59.2266C568.255 57.4585 568.619 54.3903 572.155 52.3621C575.691 50.334 580.996 50.1 584.064 51.8681Z" fill="#24126A"/>
<path d="M773.149 161.154C769.613 163.182 763.918 163.182 760.382 161.154C756.846 159.126 756.846 155.823 760.382 153.795C763.918 151.767 769.613 151.767 773.149 153.795C776.685 155.823 776.685 159.126 773.149 161.154Z" fill="#76AAFF"/>
<path d="M724.448 125.687L749.435 140.118C752.478 141.886 752.113 144.955 748.577 146.983C745.041 149.011 739.737 149.245 736.668 147.477L711.681 133.046C708.638 131.278 709.002 128.21 712.539 126.181C716.075 124.153 721.379 123.919 724.448 125.687Z" fill="#76AAFF"/>
<path d="M584.064 42.8975L609.051 57.3285C612.094 59.0966 611.73 62.1649 608.193 64.193C604.657 66.2211 599.327 66.4552 596.285 64.687L571.297 50.256C568.255 48.4879 568.619 45.4197 572.155 43.3915C575.691 41.3634 580.996 41.1294 584.064 42.8975Z" fill="#76AAFF"/>
<g opacity="0.3">
<path d="M134.466 521.305V509.656L131.242 507.862C130.332 513.375 123.857 516.989 118.449 517.743L81.6044 539.298L65.5093 545.097L14.1817 518.601L15.3778 517.925C10.9835 515.871 8.61732 511.19 6.25116 506.9L2.79291 508.954L0.73877 509.526V521.487C0.73877 523.775 2.24687 526.063 5.26309 527.78L56.6947 557.474C62.7271 560.958 72.5038 560.958 78.5362 557.474L129.968 527.78C132.932 526.063 134.44 523.827 134.492 521.591C134.492 521.487 134.492 521.383 134.492 521.279L134.466 521.305Z" fill="url(#paint3_linear_190_47)"/>
<path opacity="0.3" d="M118.449 517.717L81.6045 539.272L67.6155 544.317V560.074C71.5678 560.074 75.52 559.216 78.5362 557.474L129.968 527.78C132.932 526.063 134.44 523.827 134.492 521.591C134.492 521.487 134.492 521.383 134.492 521.279V509.63L131.554 507.992H131.242C130.228 513.401 123.831 516.963 118.475 517.717H118.449Z" fill="#0F054C"/>
<path d="M56.6687 545.643L5.23709 515.949C-0.795337 512.464 -0.795337 506.822 5.23709 503.338L56.6687 473.644C62.7011 470.16 72.4778 470.16 78.5102 473.644L129.942 503.338C135.974 506.822 135.974 512.464 129.942 515.949L78.5102 545.643C72.4778 549.127 62.7011 549.127 56.6687 545.643Z" fill="url(#paint4_linear_190_47)"/>
<g opacity="0.3">
<path d="M56.6687 545.643L5.23709 515.949C-0.795337 512.464 -0.795337 506.822 5.23709 503.338L56.6687 473.644C62.7011 470.16 72.4778 470.16 78.5102 473.644L129.942 503.338C135.974 506.822 135.974 512.464 129.942 515.949L78.5102 545.643C72.4778 549.127 62.7011 549.127 56.6687 545.643Z" fill="#0F054C"/>
</g>
</g>
<path d="M67.5894 502.454C64.0792 502.454 60.5689 501.674 57.8907 500.14L6.45912 470.445C3.78093 468.911 2.32483 466.831 2.32483 464.595C2.32483 462.359 3.80693 460.279 6.45912 458.745L57.8907 429.051C63.2471 425.956 71.9317 425.956 77.2881 429.051L128.72 458.745C131.398 460.279 132.854 462.359 132.854 464.595C132.854 466.831 131.372 468.911 128.72 470.445L77.2881 500.14C74.6099 501.674 71.0997 502.454 67.5894 502.454ZM67.5894 427.62C64.2352 427.62 60.9069 428.349 58.3328 429.831L6.90115 459.525C4.50898 460.903 3.20889 462.697 3.20889 464.595C3.20889 466.493 4.50898 468.287 6.90115 469.665L58.3328 499.36C63.4291 502.298 71.7237 502.298 76.8201 499.36L128.252 469.665C130.644 468.287 131.944 466.493 131.944 464.595C131.944 462.697 130.644 460.903 128.252 459.525L76.8201 429.831C74.2719 428.349 70.9176 427.62 67.5634 427.62H67.5894Z" fill="#76AAFF"/>
<path opacity="0.4" d="M134.466 453.18V435.577L131.242 433.783C130.331 439.295 123.857 442.91 118.449 443.664L81.6041 465.219L65.5089 471.018L14.1813 444.522L15.3774 443.846C10.9831 441.792 8.61696 437.111 6.25079 432.821L2.79255 434.875L0.738403 435.447V453.362C0.738403 455.651 2.24651 457.939 5.26272 459.655L56.6943 489.349C62.7268 492.833 72.5034 492.833 78.5359 489.349L129.967 459.655C132.932 457.939 134.44 455.703 134.492 453.466C134.492 453.362 134.492 453.258 134.492 453.154L134.466 453.18Z" fill="#76AAFF"/>
<path d="M134.466 437.527V425.878L131.242 424.084C130.331 429.597 123.857 433.211 118.449 433.965L81.6041 455.52L65.5089 461.319L14.1813 434.823L15.3774 434.147C10.9831 432.093 8.61696 427.412 6.25079 423.122L2.79255 425.176L0.738403 425.748V437.709C0.738403 439.997 2.24651 442.285 5.26272 444.002L56.6943 473.696C62.7268 477.18 72.5034 477.18 78.5359 473.696L129.967 444.002C132.932 442.285 134.44 440.049 134.492 437.813C134.492 437.709 134.492 437.605 134.492 437.501L134.466 437.527Z" fill="url(#paint5_linear_190_47)"/>
<path opacity="0.3" d="M118.449 433.965L81.6045 455.52L67.6155 460.565V476.322C71.5678 476.322 75.52 475.464 78.5362 473.722L129.968 444.028C132.932 442.312 134.44 440.075 134.492 437.839C134.492 437.735 134.492 437.631 134.492 437.527V425.878L131.554 424.24H131.242C130.228 429.649 123.831 433.211 118.475 433.965H118.449Z" fill="#0F054C"/>
<path d="M56.6684 461.865L5.23684 432.171C-0.795581 428.687 -0.795581 423.044 5.23684 419.56L56.6684 389.866C62.7009 386.382 72.4776 386.382 78.51 389.866L129.942 419.56C135.974 423.044 135.974 428.687 129.942 432.171L78.51 461.865C72.4776 465.349 62.7009 465.349 56.6684 461.865Z" fill="url(#paint6_linear_190_47)"/>
<path d="M67.5894 456.483C64.4171 456.483 61.2449 455.78 58.8267 454.402L18.6539 431.209C16.2358 429.805 14.9097 427.932 14.9097 425.878C14.9097 423.824 16.2358 421.952 18.6539 420.548L58.8267 397.354C63.6631 394.572 71.5156 394.572 76.352 397.354L116.525 420.548C118.943 421.952 120.269 423.824 120.269 425.852C120.269 427.881 118.943 429.779 116.525 431.183L76.352 454.376C73.9338 455.78 70.7616 456.457 67.5894 456.457V456.483ZM67.5894 396.158C64.5732 396.158 61.5829 396.808 59.2948 398.134L19.122 421.328C16.9898 422.55 15.8197 424.162 15.8197 425.852C15.8197 427.542 16.9898 429.155 19.122 430.403L59.2948 453.596C63.8711 456.248 71.3336 456.248 75.9099 453.596L116.083 430.403C118.215 429.181 119.385 427.568 119.385 425.852C119.385 424.162 118.215 422.55 116.083 421.328L75.9099 398.134C73.6218 396.808 70.6056 396.158 67.5894 396.158Z" fill="#5351AF"/>
<path d="M129.942 432.171L78.5102 461.865C72.4777 465.349 62.701 465.349 56.6686 461.865L5.237 432.171C2.53281 430.611 1.0507 428.635 0.764683 426.58C0.400657 429.103 1.90876 431.677 5.237 433.601L56.6686 463.295C62.701 466.779 72.4777 466.779 78.5102 463.295L129.942 433.601C133.27 431.677 134.752 429.077 134.414 426.58C134.128 428.609 132.646 430.611 129.942 432.171Z" fill="white"/>
<g opacity="0.3">
<path d="M199.288 173.739V162.09L196.064 160.296C195.154 165.808 188.68 169.422 183.271 170.176L146.427 191.732L130.332 197.53L79.004 171.034L80.2001 170.358C75.8058 168.304 73.4396 163.624 71.0734 159.334L67.6152 161.388L65.561 161.96V173.921C65.561 176.209 67.0691 178.497 70.0854 180.213L121.517 209.907C127.549 213.391 137.326 213.391 143.359 209.907L194.79 180.213C197.754 178.497 199.262 176.261 199.314 174.025C199.314 173.921 199.314 173.817 199.314 173.713L199.288 173.739Z" fill="url(#paint7_linear_190_47)"/>
<path opacity="0.3" d="M183.271 170.176L146.427 191.732L132.438 196.776V212.533C136.39 212.533 140.342 211.675 143.359 209.933L194.79 180.239C197.754 178.523 199.262 176.287 199.314 174.051C199.314 173.947 199.314 173.843 199.314 173.739V162.09L196.376 160.452H196.064C195.05 165.86 188.654 169.422 183.297 170.176H183.271Z" fill="#0F054C"/>
<path d="M121.491 198.102L70.0595 168.408C64.0271 164.924 64.0271 159.282 70.0595 155.797L121.491 126.103C127.524 122.619 137.3 122.619 143.333 126.103L194.764 155.797C200.797 159.282 200.797 164.924 194.764 168.408L143.333 198.102C137.3 201.587 127.524 201.587 121.491 198.102Z" fill="url(#paint8_linear_190_47)"/>
<g opacity="0.3">
<path d="M121.491 198.102L70.0595 168.408C64.0271 164.924 64.0271 159.282 70.0595 155.797L121.491 126.103C127.524 122.619 137.3 122.619 143.333 126.103L194.764 155.797C200.797 159.282 200.797 164.924 194.764 168.408L143.333 198.102C137.3 201.587 127.524 201.587 121.491 198.102Z" fill="#0F054C"/>
</g>
</g>
<path d="M132.412 160.66C128.902 160.66 125.392 159.88 122.713 158.346L71.2818 128.652C68.6036 127.117 67.1475 125.037 67.1475 122.801C67.1475 120.565 68.6296 118.485 71.2818 116.951L122.713 87.2566C128.07 84.1624 136.754 84.1624 142.111 87.2566L193.542 116.951C196.221 118.485 197.677 120.565 197.677 122.801C197.677 125.037 196.195 127.117 193.542 128.652L142.111 158.346C139.433 159.88 135.922 160.66 132.412 160.66ZM132.412 85.8265C129.058 85.8265 125.73 86.5546 123.155 88.0367L71.7238 117.731C69.3316 119.109 68.0315 120.903 68.0315 122.801C68.0315 124.699 69.3316 126.493 71.7238 127.871L123.155 157.566C128.252 160.504 136.546 160.504 141.643 157.566L193.074 127.871C195.44 126.493 196.767 124.699 196.767 122.801C196.767 120.903 195.466 119.109 193.074 117.731L141.643 88.0367C139.095 86.5546 135.74 85.8265 132.386 85.8265H132.412Z" fill="#76AAFF"/>
<path opacity="0.4" d="M199.288 111.386V93.7831L196.064 91.989C195.154 97.5014 188.68 101.116 183.271 101.87L146.427 123.425L130.332 129.224L79.004 102.728L80.2001 102.052C75.8058 99.9975 73.4396 95.3172 71.0734 91.0269L67.6152 93.0811L65.561 93.6531V111.568C65.561 113.857 67.0691 116.145 70.0854 117.861L121.517 147.555C127.549 151.039 137.326 151.039 143.359 147.555L194.79 117.861C197.754 116.145 199.262 113.909 199.314 111.672C199.314 111.568 199.314 111.464 199.314 111.36L199.288 111.386Z" fill="#76AAFF"/>
<path d="M199.288 95.7332V84.0844L196.064 82.2903C195.154 87.8027 188.68 91.4169 183.271 92.171L146.427 113.726L130.332 119.525L79.004 93.029L80.2001 92.353C75.8058 90.2988 73.4396 85.6185 71.0734 81.3282L67.6152 83.3824L65.561 83.9544V95.9152C65.561 98.2034 67.0691 100.492 70.0854 102.208L121.517 131.902C127.549 135.386 137.326 135.386 143.359 131.902L194.79 102.208C197.754 100.492 199.262 98.2554 199.314 96.0192C199.314 95.9152 199.314 95.8112 199.314 95.7072L199.288 95.7332Z" fill="url(#paint9_linear_190_47)"/>
<path opacity="0.3" d="M183.272 92.171L146.427 113.726L132.438 118.771V134.528C136.39 134.528 140.343 133.67 143.359 131.928L194.791 102.234C197.755 100.518 199.263 98.2814 199.315 96.0452C199.315 95.9412 199.315 95.8372 199.315 95.7332V84.0844L196.377 82.4463H196.065C195.051 87.8547 188.654 91.4169 183.298 92.171H183.272Z" fill="#0F054C"/>
<path d="M121.491 120.097L70.0597 90.4028C64.0273 86.9186 64.0273 81.2762 70.0597 77.792L121.491 48.0979C127.524 44.6136 137.3 44.6136 143.333 48.0979L194.764 77.792C200.797 81.2762 200.797 86.9186 194.764 90.4028L143.333 120.097C137.3 123.581 127.524 123.581 121.491 120.097Z" fill="url(#paint10_linear_190_47)"/>
<path d="M132.412 114.689C129.24 114.689 126.068 113.986 123.649 112.608L83.4766 89.4148C81.0584 88.0107 79.7323 86.1385 79.7323 84.0844C79.7323 82.0562 81.0584 80.1581 83.4766 78.78L123.649 55.5864C128.486 52.8042 136.338 52.8042 141.175 55.5864L181.347 78.78C183.766 80.1841 185.092 82.0562 185.092 84.0844C185.092 86.1125 183.766 88.0107 181.347 89.3887L141.175 112.582C138.756 113.986 135.584 114.663 132.412 114.663V114.689ZM132.412 54.3643C129.396 54.3643 126.406 55.0143 124.117 56.3404L83.9446 79.5341C81.8125 80.7561 80.6424 82.3683 80.6424 84.0584C80.6424 85.7485 81.8125 87.3606 83.9446 88.6087L124.117 111.802C128.694 114.455 136.156 114.455 140.733 111.802L180.905 88.6087C183.038 87.3866 184.208 85.7745 184.208 84.0844C184.208 82.3943 183.038 80.7821 180.905 79.5601L140.733 56.3664C138.444 55.0403 135.428 54.3903 132.412 54.3903V54.3643Z" fill="#5351AF"/>
<path d="M194.764 90.3768L143.333 120.071C137.3 123.555 127.524 123.555 121.491 120.071L70.0596 90.3768C67.3554 88.8167 65.8733 86.8406 65.5873 84.7864C65.2233 87.3086 66.7314 89.8828 70.0596 91.8069L121.491 121.501C127.524 124.985 137.3 124.985 143.333 121.501L194.764 91.8069C198.093 89.8828 199.575 87.2826 199.237 84.7864C198.951 86.8146 197.469 88.8167 194.764 90.3768Z" fill="white"/>
<path opacity="0.4" d="M477.976 327.513L278.438 212.325C273.29 209.361 273.94 204.161 279.894 200.702L396.304 133.488C402.259 130.056 411.256 129.666 416.43 132.656L615.968 247.844C621.116 250.808 620.466 256.008 614.512 259.467L498.102 326.681C492.147 330.114 483.151 330.504 477.976 327.513Z" fill="#24126A"/>
<path d="M668.908 158.268L665.579 157.826C665.215 157.566 664.851 157.305 664.435 157.071L407.563 8.78306C400.933 4.96079 389.336 5.42882 381.665 9.84913L231.817 96.3572C229.815 97.5013 228.307 98.8274 227.241 100.179L225.472 99.6594V104.834C225.472 107.252 226.955 109.566 229.945 111.282L486.817 259.597C493.447 263.419 505.044 262.951 512.715 258.531L662.563 172.023C666.853 169.552 668.986 166.38 668.908 163.364V158.242V158.268Z" fill="#93B2F8"/>
<path d="M486.817 254.422L229.945 106.134C223.314 102.312 224.146 95.6032 231.791 91.1829L381.665 4.64878C389.336 0.22847 400.933 -0.265564 407.563 3.58271L664.435 151.897C671.066 155.719 670.234 162.428 662.589 166.848L512.741 253.356C505.07 257.777 493.473 258.271 486.843 254.422H486.817Z" fill="#76AAFF"/>
<path d="M528.264 244.386L247.366 82.1862L277.19 64.973L558.088 227.146L528.264 244.386Z" fill="#24126A"/>
<g opacity="0.1">
<path d="M660.249 477.466C660.249 448.474 680.608 413.216 705.726 398.707C718.311 391.452 729.7 390.776 737.916 395.56L746.523 400.579L744.027 400.813C748.551 406.351 751.203 414.542 751.203 424.968C751.203 453.96 730.844 489.219 705.726 503.728C697.093 508.72 689.033 510.592 682.168 509.734L682.35 512.048L673.614 506.952C673.614 506.952 673.536 506.9 673.51 506.9L673.146 506.692C665.163 501.83 660.223 491.767 660.223 477.492L660.249 477.466Z" fill="#93B2F8"/>
<path d="M746.563 474.828C764.319 444.072 764.317 410.828 746.558 400.575C728.798 390.322 700.007 406.942 682.25 437.697C664.494 468.453 664.496 501.697 682.255 511.95C700.014 522.203 728.806 505.583 746.563 474.828Z" fill="#76AAFF"/>
</g>
<path opacity="0.2" d="M711.446 543.797C671.638 543.797 631.829 535.06 601.537 517.561C572.103 500.556 555.877 477.934 555.877 453.856C555.877 429.779 572.103 407.131 601.537 390.126C662.147 355.127 760.746 355.127 821.356 390.126C850.79 407.131 867.015 429.753 867.015 453.83C867.015 477.908 850.79 500.556 821.356 517.535C791.064 535.034 751.255 543.771 711.446 543.771V543.797ZM711.446 364.774C671.794 364.774 632.167 373.485 601.979 390.906C572.831 407.729 556.761 430.091 556.761 453.856C556.761 477.622 572.805 499.958 601.979 516.781C662.329 551.623 760.538 551.623 820.888 516.781C850.036 499.958 866.105 477.596 866.105 453.856C866.105 430.117 850.062 407.755 820.888 390.932C790.726 373.511 751.073 364.8 711.42 364.8L711.446 364.774Z" fill="#76AAFF"/>
<path d="M711.472 509.786C686.745 509.786 662.043 504.352 643.218 493.483C624.912 482.9 614.824 468.833 614.824 453.83C614.824 438.827 624.912 424.734 643.218 414.152C680.842 392.414 742.103 392.414 779.727 414.152C798.032 424.734 808.121 438.827 808.121 453.83C808.121 468.833 798.032 482.926 779.727 493.509C760.902 504.378 736.2 509.812 711.472 509.812V509.786ZM711.472 398.732C686.927 398.732 662.355 404.141 643.66 414.932C625.64 425.332 615.708 439.165 615.708 453.83C615.708 468.495 625.64 482.302 643.66 492.703C681.05 514.285 741.895 514.285 779.259 492.703C797.278 482.302 807.211 468.495 807.211 453.804C807.211 439.113 797.278 425.332 779.259 414.906C760.564 404.115 736.018 398.706 711.446 398.706L711.472 398.732Z" fill="#76AAFF"/>
<mask id="mask1_190_47" style="mask-type:luminance" maskUnits="userSpaceOnUse" x="640" y="290" width="143" height="193">
<path d="M640.279 465.973L668.855 482.432L782.665 416.726V290.383L640.279 372.575V465.973Z" fill="white"/>
</mask>
<g mask="url(#mask1_190_47)">
<path d="M660.249 477.466C660.249 448.474 680.608 413.216 705.726 398.707C718.311 391.452 729.7 390.776 737.916 395.56L746.523 400.579L744.027 400.813C748.551 406.351 751.203 414.542 751.203 424.968C751.203 453.96 730.844 489.219 705.726 503.728C697.093 508.72 689.033 510.592 682.168 509.734L682.35 512.048L673.614 506.952C673.614 506.952 673.536 506.9 673.51 506.9L673.146 506.692C665.163 501.83 660.223 491.767 660.223 477.492L660.249 477.466Z" fill="#93B2F8"/>
<path d="M746.563 474.828C764.319 444.072 764.317 410.828 746.558 400.575C728.798 390.322 700.007 406.942 682.25 437.697C664.494 468.453 664.496 501.697 682.255 511.95C700.014 522.203 728.806 505.583 746.563 474.828Z" fill="#76AAFF"/>
</g>
<defs>
<linearGradient id="paint0_linear_190_47" x1="84.2564" y1="256.086" x2="839.064" y2="256.086" gradientUnits="userSpaceOnUse">
<stop stop-color="#BCBEFF"/>
<stop offset="0.15" stop-color="#A2A6F5"/>
<stop offset="0.39" stop-color="#8188E8"/>
<stop offset="0.61" stop-color="#6A72DE"/>
<stop offset="0.82" stop-color="#5B65D8"/>
<stop offset="1" stop-color="#5761D7"/>
</linearGradient>
<linearGradient id="paint1_linear_190_47" x1="566.798" y1="362.876" x2="356.105" y2="83.2783" gradientUnits="userSpaceOnUse">
<stop stop-color="#42E8E0"/>
<stop offset="0.11" stop-color="#36B5BF"/>
<stop offset="0.22" stop-color="#2C87A0"/>
<stop offset="0.34" stop-color="#235F86"/>
<stop offset="0.46" stop-color="#1B3E71"/>
<stop offset="0.58" stop-color="#162560"/>
<stop offset="0.71" stop-color="#121355"/>
<stop offset="0.85" stop-color="#0F084E"/>
<stop offset="1" stop-color="#0F054C"/>
</linearGradient>
<radialGradient id="paint2_radial_190_47" cx="0" cy="0" r="1" gradientUnits="userSpaceOnUse" gradientTransform="translate(423.866 216.564) scale(590.788 590.788)">
<stop stop-color="#42E8E0"/>
<stop offset="0.11" stop-color="#36B5BF"/>
<stop offset="0.22" stop-color="#2C87A0"/>
<stop offset="0.34" stop-color="#235F86"/>
<stop offset="0.46" stop-color="#1B3E71"/>
<stop offset="0.58" stop-color="#162560"/>
<stop offset="0.71" stop-color="#121355"/>
<stop offset="0.85" stop-color="#0F084E"/>
<stop offset="1" stop-color="#0F054C"/>
</radialGradient>
<linearGradient id="paint3_linear_190_47" x1="14.0257" y1="486.489" x2="120.139" y2="547.749" gradientUnits="userSpaceOnUse">
<stop stop-color="#BCBEFF"/>
<stop offset="0.23" stop-color="#AAADF7"/>
<stop offset="0.68" stop-color="#7B82E5"/>
<stop offset="1" stop-color="#5761D7"/>
</linearGradient>
<linearGradient id="paint4_linear_190_47" x1="0.73877" y1="509.63" x2="134.466" y2="509.63" gradientUnits="userSpaceOnUse">
<stop stop-color="#E9E9FD"/>
<stop offset="0.36" stop-color="#D2D2F9"/>
<stop offset="0.71" stop-color="#C4C3F6"/>
<stop offset="1" stop-color="#C0BFF6"/>
</linearGradient>
<linearGradient id="paint5_linear_190_47" x1="14.0253" y1="402.711" x2="120.139" y2="463.971" gradientUnits="userSpaceOnUse">
<stop stop-color="#BCBEFF"/>
<stop offset="0.23" stop-color="#AAADF7"/>
<stop offset="0.68" stop-color="#7B82E5"/>
<stop offset="1" stop-color="#5761D7"/>
</linearGradient>
<linearGradient id="paint6_linear_190_47" x1="-10.0002" y1="425.878" x2="134.466" y2="425.878" gradientUnits="userSpaceOnUse">
<stop stop-color="#E9E9FD"/>
<stop offset="0.36" stop-color="#D2D2F9"/>
<stop offset="0.71" stop-color="#C4C3F6"/>
<stop offset="1" stop-color="#C0BFF6"/>
</linearGradient>
<linearGradient id="paint7_linear_190_47" x1="78.848" y1="138.922" x2="184.961" y2="200.209" gradientUnits="userSpaceOnUse">
<stop stop-color="#BCBEFF"/>
<stop offset="0.23" stop-color="#AAADF7"/>
<stop offset="0.68" stop-color="#7B82E5"/>
<stop offset="1" stop-color="#5761D7"/>
</linearGradient>
<linearGradient id="paint8_linear_190_47" x1="65.5352" y1="162.09" x2="199.289" y2="162.09" gradientUnits="userSpaceOnUse">
<stop stop-color="#E9E9FD"/>
<stop offset="0.36" stop-color="#D2D2F9"/>
<stop offset="0.71" stop-color="#C4C3F6"/>
<stop offset="1" stop-color="#C0BFF6"/>
</linearGradient>
<linearGradient id="paint9_linear_190_47" x1="78.848" y1="60.9168" x2="184.961" y2="122.203" gradientUnits="userSpaceOnUse">
<stop stop-color="#BCBEFF"/>
<stop offset="0.23" stop-color="#AAADF7"/>
<stop offset="0.68" stop-color="#7B82E5"/>
<stop offset="1" stop-color="#5761D7"/>
</linearGradient>
<linearGradient id="paint10_linear_190_47" x1="65.5354" y1="84.0844" x2="199.289" y2="84.0844" gradientUnits="userSpaceOnUse">
<stop stop-color="#E9E9FD"/>
<stop offset="0.36" stop-color="#D2D2F9"/>
<stop offset="0.71" stop-color="#C4C3F6"/>
<stop offset="1" stop-color="#C0BFF6"/>
</linearGradient>
</defs>
</svg>
