<svg width="16" height="16" viewBox="0 0 16 16" fill="none" xmlns="http://www.w3.org/2000/svg">
<path d="M16 14.5001L12.7 11.2001C13.6189 9.99379 14.1113 8.51654 14.1 7.00013C14.1057 6.07929 13.9285 5.16647 13.5788 4.31461C13.229 3.46275 12.7136 2.68881 12.0625 2.03766C11.4113 1.38651 10.6374 0.871109 9.78551 0.521348C8.93365 0.171587 8.02083 -0.00557568 7.09999 0.000133728C6.17914 -0.00557568 5.26632 0.171587 4.41446 0.521348C3.56261 0.871109 2.78866 1.38651 2.13751 2.03766C1.48636 2.68881 0.970962 3.46275 0.621201 4.31461C0.27144 5.16647 0.0942778 6.07929 0.0999872 7.00013C0.0942778 7.92098 0.27144 8.8338 0.621201 9.68566C0.970962 10.5375 1.48636 11.3115 2.13751 11.9626C2.78866 12.6138 3.56261 13.1292 4.41446 13.4789C5.26632 13.8287 6.17914 14.0058 7.09999 14.0001C8.61639 14.0114 10.0936 13.519 11.3 12.6001L14.6 15.9001L16 14.5001ZM2.09999 7.00013C2.09344 6.3417 2.21829 5.68858 2.46725 5.07899C2.7162 4.46941 3.08425 3.91561 3.54986 3.45C4.01546 2.9844 4.56926 2.61635 5.17885 2.3674C5.78843 2.11844 6.44156 1.99358 7.09999 2.00013C7.75842 1.99358 8.41154 2.11844 9.02113 2.3674C9.63071 2.61635 10.1845 2.9844 10.6501 3.45C11.1157 3.91561 11.4838 4.46941 11.7327 5.07899C11.9817 5.68858 12.1065 6.3417 12.1 7.00013C12.1065 7.65856 11.9817 8.31169 11.7327 8.92127C11.4838 9.53086 11.1157 10.0847 10.6501 10.5503C10.1845 11.0159 9.63071 11.3839 9.02113 11.6329C8.41154 11.8818 7.75842 12.0067 7.09999 12.0001C6.44156 12.0067 5.78843 11.8818 5.17885 11.6329C4.56926 11.3839 4.01546 11.0159 3.54986 10.5503C3.08425 10.0847 2.7162 9.53086 2.46725 8.92127C2.21829 8.31169 2.09344 7.65856 2.09999 7.00013Z" fill="#D5E5FF"/>
</svg>
