<svg width="5" height="17" viewBox="0 0 5 17" fill="none" xmlns="http://www.w3.org/2000/svg">
<path fill-rule="evenodd" clip-rule="evenodd" d="M2.78003 4.04999C3.88003 4.04999 4.78003 3.14999 4.78003 2.04999C4.78003 0.949988 3.88003 0.0499878 2.78003 0.0499878C1.68003 0.0499878 0.780029 0.949988 0.780029 2.04999C0.780029 3.14999 1.68003 4.04999 2.78003 4.04999ZM2.78003 6.04999C1.68003 6.04999 0.780029 6.94999 0.780029 8.04999C0.780029 9.14999 1.68003 10.05 2.78003 10.05C3.88003 10.05 4.78003 9.14999 4.78003 8.04999C4.78003 6.94999 3.88003 6.04999 2.78003 6.04999ZM0.780029 14.05C0.780029 12.95 1.68003 12.05 2.78003 12.05C3.88003 12.05 4.78003 12.95 4.78003 14.05C4.78003 15.15 3.88003 16.05 2.78003 16.05C1.68003 16.05 0.780029 15.15 0.780029 14.05Z" fill="#D5E5FF"/>
</svg>
