<svg width="20" height="21" viewBox="0 0 20 21" fill="none" xmlns="http://www.w3.org/2000/svg">
<path d="M17.1646 11.7527C17.2063 11.4402 17.2271 11.1172 17.2271 10.7735C17.2271 10.4402 17.2063 10.1068 17.1542 9.79433L19.2688 8.1485C19.4563 8.00266 19.5084 7.72141 19.3938 7.51308L17.3938 4.05475C17.2688 3.82558 17.0084 3.75266 16.7792 3.82558L14.2896 4.82558C13.7688 4.42975 13.2167 4.09641 12.6021 3.84641L12.2271 1.20058C12.1854 0.950582 11.9771 0.773499 11.7271 0.773499H7.7271C7.4771 0.773499 7.27918 0.950582 7.23752 1.20058L6.86252 3.84641C6.24793 4.09641 5.68543 4.44016 5.17501 4.82558L2.68542 3.82558C2.45626 3.74225 2.19584 3.82558 2.07084 4.05475L0.0812505 7.51308C-0.0437497 7.73183 -0.00208309 8.00266 0.206251 8.1485L2.32084 9.79433C2.26876 10.1068 2.22709 10.4506 2.22709 10.7735C2.22709 11.0964 2.24792 11.4402 2.30001 11.7527L0.185417 13.3985C-0.00208308 13.5443 -0.0541664 13.8256 0.0604172 14.0339L2.06042 17.4922C2.18542 17.7214 2.44584 17.7943 2.67501 17.7214L5.1646 16.7214C5.68543 17.1172 6.23751 17.4506 6.8521 17.7006L7.2271 20.3464C7.27918 20.5964 7.4771 20.7735 7.7271 20.7735H11.7271C11.9771 20.7735 12.1854 20.5964 12.2167 20.3464L12.5917 17.7006C13.2063 17.4506 13.7688 17.1172 14.2792 16.7214L16.7688 17.7214C16.998 17.8047 17.2584 17.7214 17.3834 17.4922L19.3834 14.0339C19.5084 13.8047 19.4563 13.5443 19.2584 13.3985L17.1646 11.7527ZM9.72711 14.5235C7.6646 14.5235 5.9771 12.836 5.9771 10.7735C5.9771 8.711 7.6646 7.0235 9.72711 7.0235C11.7896 7.0235 13.4771 8.711 13.4771 10.7735C13.4771 12.836 11.7896 14.5235 9.72711 14.5235Z" fill="#FAFAFA"/>
<path d="M17.1646 11.7527C17.2063 11.4402 17.2271 11.1172 17.2271 10.7735C17.2271 10.4402 17.2063 10.1068 17.1542 9.79433L19.2688 8.1485C19.4563 8.00266 19.5084 7.72141 19.3938 7.51308L17.3938 4.05475C17.2688 3.82558 17.0084 3.75266 16.7792 3.82558L14.2896 4.82558C13.7688 4.42975 13.2167 4.09641 12.6021 3.84641L12.2271 1.20058C12.1854 0.950582 11.9771 0.773499 11.7271 0.773499H7.7271C7.4771 0.773499 7.27918 0.950582 7.23752 1.20058L6.86252 3.84641C6.24793 4.09641 5.68543 4.44016 5.17501 4.82558L2.68542 3.82558C2.45626 3.74225 2.19584 3.82558 2.07084 4.05475L0.0812505 7.51308C-0.0437497 7.73183 -0.00208309 8.00266 0.206251 8.1485L2.32084 9.79433C2.26876 10.1068 2.22709 10.4506 2.22709 10.7735C2.22709 11.0964 2.24792 11.4402 2.30001 11.7527L0.185417 13.3985C-0.00208308 13.5443 -0.0541664 13.8256 0.0604172 14.0339L2.06042 17.4922C2.18542 17.7214 2.44584 17.7943 2.67501 17.7214L5.1646 16.7214C5.68543 17.1172 6.23751 17.4506 6.8521 17.7006L7.2271 20.3464C7.27918 20.5964 7.4771 20.7735 7.7271 20.7735H11.7271C11.9771 20.7735 12.1854 20.5964 12.2167 20.3464L12.5917 17.7006C13.2063 17.4506 13.7688 17.1172 14.2792 16.7214L16.7688 17.7214C16.998 17.8047 17.2584 17.7214 17.3834 17.4922L19.3834 14.0339C19.5084 13.8047 19.4563 13.5443 19.2584 13.3985L17.1646 11.7527ZM9.72711 14.5235C7.6646 14.5235 5.9771 12.836 5.9771 10.7735C5.9771 8.711 7.6646 7.0235 9.72711 7.0235C11.7896 7.0235 13.4771 8.711 13.4771 10.7735C13.4771 12.836 11.7896 14.5235 9.72711 14.5235Z" fill="black" fill-opacity="0.3"/>
</svg>
