<svg width="19" height="19" viewBox="0 0 19 19" fill="none" xmlns="http://www.w3.org/2000/svg">
<path d="M13 10.7735C13.4333 10.7735 13.7917 10.6318 14.075 10.3485C14.3583 10.0652 14.5 9.70683 14.5 9.2735C14.5 8.84017 14.3583 8.48183 14.075 8.1985C13.7917 7.91517 13.4333 7.7735 13 7.7735C12.5667 7.7735 12.2083 7.91517 11.925 8.1985C11.6417 8.48183 11.5 8.84017 11.5 9.2735C11.5 9.70683 11.6417 10.0652 11.925 10.3485C12.2083 10.6318 12.5667 10.7735 13 10.7735ZM2 18.2735C1.45 18.2735 0.979167 18.0777 0.5875 17.686C0.195833 17.2943 0 16.8235 0 16.2735V2.2735C0 1.7235 0.195833 1.25267 0.5875 0.860999C0.979167 0.469332 1.45 0.273499 2 0.273499H16C16.55 0.273499 17.0208 0.469332 17.4125 0.860999C17.8042 1.25267 18 1.7235 18 2.2735V4.7735H16V2.2735H2V16.2735H16V13.7735H18V16.2735C18 16.8235 17.8042 17.2943 17.4125 17.686C17.0208 18.0777 16.55 18.2735 16 18.2735H2ZM10 14.2735C9.45 14.2735 8.97917 14.0777 8.5875 13.686C8.19583 13.2943 8 12.8235 8 12.2735V6.2735C8 5.7235 8.19583 5.25267 8.5875 4.861C8.97917 4.46933 9.45 4.2735 10 4.2735H17C17.55 4.2735 18.0208 4.46933 18.4125 4.861C18.8042 5.25267 19 5.7235 19 6.2735V12.2735C19 12.8235 18.8042 13.2943 18.4125 13.686C18.0208 14.0777 17.55 14.2735 17 14.2735H10ZM17 12.2735V6.2735H10V12.2735H17Z" fill="#FAFAFA"/>
</svg>
