<svg width="18" height="21" viewBox="0 0 18 21" fill="none" xmlns="http://www.w3.org/2000/svg">
<path d="M17.973 11.3077C17.8977 12.2664 15.9835 12.6335 15.9835 12.6335V15.9488C15.9835 16.5278 15.8329 16.9059 15.6258 17.1523C15.4673 17.3437 15.2743 17.4551 15.0955 17.521C14.7832 17.6355 14.5087 17.6073 14.5087 17.6073H12.152V20.7735H3.05656V16.76C3.05656 13.1497 0.0346693 13.7036 0.000151397 7.92028C-0.0375045 2.13696 6.96179 0.773499 6.96179 0.773499V7.93911C6.35616 8.30782 5.95135 8.97621 5.95135 9.73718C5.95135 10.8982 6.89275 11.8412 8.05538 11.8412C8.2468 11.8412 8.43194 11.8145 8.60923 11.7675L11.0631 14.19C11.0616 14.2072 11.0616 14.2261 11.0616 14.2433C11.0616 15.1 11.7566 15.7951 12.6149 15.7951C13.4731 15.7951 14.1666 15.1 14.1666 14.2433C14.1666 13.3867 13.4716 12.69 12.6149 12.69C12.5929 12.69 12.571 12.69 12.5506 12.6916L10.0919 10.2659C10.1374 10.098 10.1594 9.91918 10.1594 9.73718C10.1594 8.94483 9.72008 8.25447 9.07209 7.89674C9.07993 6.254 9.08464 3.50669 9.06424 0.773499C16.1765 2.39427 15.8721 7.84497 15.8721 7.84497C15.8721 7.84497 18.0467 10.3491 17.973 11.3062V11.3077Z" fill="white"/>
<path d="M17.973 11.3077C17.8977 12.2664 15.9835 12.6335 15.9835 12.6335V15.9488C15.9835 16.5278 15.8329 16.9059 15.6258 17.1523C15.4673 17.3437 15.2743 17.4551 15.0955 17.521C14.7832 17.6355 14.5087 17.6073 14.5087 17.6073H12.152V20.7735H3.05656V16.76C3.05656 13.1497 0.0346693 13.7036 0.000151397 7.92028C-0.0375045 2.13696 6.96179 0.773499 6.96179 0.773499V7.93911C6.35616 8.30782 5.95135 8.97621 5.95135 9.73718C5.95135 10.8982 6.89275 11.8412 8.05538 11.8412C8.2468 11.8412 8.43194 11.8145 8.60923 11.7675L11.0631 14.19C11.0616 14.2072 11.0616 14.2261 11.0616 14.2433C11.0616 15.1 11.7566 15.7951 12.6149 15.7951C13.4731 15.7951 14.1666 15.1 14.1666 14.2433C14.1666 13.3867 13.4716 12.69 12.6149 12.69C12.5929 12.69 12.571 12.69 12.5506 12.6916L10.0919 10.2659C10.1374 10.098 10.1594 9.91918 10.1594 9.73718C10.1594 8.94483 9.72008 8.25447 9.07209 7.89674C9.07993 6.254 9.08464 3.50669 9.06424 0.773499C16.1765 2.39427 15.8721 7.84497 15.8721 7.84497C15.8721 7.84497 18.0467 10.3491 17.973 11.3062V11.3077Z" fill="black" fill-opacity="0.3"/>
</svg>
